<mxfile host="app.diagrams.net" modified="2023-10-02T10:29:00.514Z" agent="Mozilla/5.0 (X11; Linux x86_64; rv:109.0) Gecko/20100101 Firefox/118.0" etag="-34if5jkIor1bNKZJD3V" version="22.0.0" type="device">
  <diagram name="Page-1" id="822b0af5-4adb-64df-f703-e8dfc1f81529">
    <mxGraphModel dx="2294" dy="2461" grid="1" gridSize="10" guides="1" tooltips="1" connect="1" arrows="1" fold="1" page="1" pageScale="1" pageWidth="1100" pageHeight="850" background="none" math="0" shadow="0">
      <root>
        <mxCell id="0" />
        <mxCell id="1" parent="0" />
        <mxCell id="7d933b09d9755ecc-5" value="Medcase&lt;br&gt;&lt;div&gt;API&lt;/div&gt;&lt;div&gt;&lt;br&gt;&lt;/div&gt;" style="verticalLabelPosition=bottom;aspect=fixed;html=1;verticalAlign=top;strokeColor=none;shape=mxgraph.citrix.file_server;rounded=0;shadow=0;comic=0;fontFamily=Verdana;" parent="1" vertex="1">
          <mxGeometry x="-990" y="-1039" width="71" height="97" as="geometry" />
        </mxCell>
        <mxCell id="BV0hq-VL02hFemEwukIW-1" value="&lt;div&gt;Renegade &lt;br&gt;API&lt;/div&gt;&lt;div&gt;&lt;br&gt;&lt;/div&gt;" style="verticalLabelPosition=bottom;aspect=fixed;html=1;verticalAlign=top;strokeColor=none;shape=mxgraph.citrix.file_server;rounded=0;shadow=0;comic=0;fontFamily=Verdana;" parent="1" vertex="1">
          <mxGeometry x="-335.5" y="-743.5" width="71" height="97" as="geometry" />
        </mxCell>
        <mxCell id="BV0hq-VL02hFemEwukIW-11" value="No" style="ellipse;whiteSpace=wrap;html=1;aspect=fixed;" parent="1" vertex="1">
          <mxGeometry x="-170" y="-897.5" width="47" height="47" as="geometry" />
        </mxCell>
        <mxCell id="BV0hq-VL02hFemEwukIW-12" value="Yes" style="ellipse;whiteSpace=wrap;html=1;aspect=fixed;" parent="1" vertex="1">
          <mxGeometry x="-570" y="-897.5" width="50" height="50" as="geometry" />
        </mxCell>
        <mxCell id="7fzuLtNcVK9V7eeY9LuI-10" style="edgeStyle=orthogonalEdgeStyle;rounded=0;orthogonalLoop=1;jettySize=auto;html=1;exitX=0;exitY=0.5;exitDx=0;exitDy=0;entryX=1;entryY=0.5;entryDx=0;entryDy=0;" edge="1" parent="1" source="BV0hq-VL02hFemEwukIW-14" target="BV0hq-VL02hFemEwukIW-12">
          <mxGeometry relative="1" as="geometry" />
        </mxCell>
        <mxCell id="BV0hq-VL02hFemEwukIW-14" value="Is Existing Kit ?" style="ellipse;whiteSpace=wrap;html=1;aspect=fixed;" parent="1" vertex="1">
          <mxGeometry x="-368" y="-937.5" width="127" height="127" as="geometry" />
        </mxCell>
        <mxCell id="BV0hq-VL02hFemEwukIW-18" value="" style="endArrow=none;dashed=1;html=1;dashPattern=1 3;strokeWidth=4;rounded=0;" parent="1" edge="1">
          <mxGeometry width="50" height="50" relative="1" as="geometry">
            <mxPoint x="-870" y="-580" as="sourcePoint" />
            <mxPoint x="-870" y="-1390" as="targetPoint" />
          </mxGeometry>
        </mxCell>
        <mxCell id="BV0hq-VL02hFemEwukIW-19" value="Orchard&lt;br&gt;&lt;div&gt;API&lt;/div&gt;&lt;div&gt;&lt;br&gt;&lt;/div&gt;" style="verticalLabelPosition=bottom;aspect=fixed;html=1;verticalAlign=top;strokeColor=none;shape=mxgraph.citrix.file_server;rounded=0;shadow=0;comic=0;fontFamily=Verdana;" parent="1" vertex="1">
          <mxGeometry x="-421" y="-1600" width="71" height="97" as="geometry" />
        </mxCell>
        <mxCell id="BV0hq-VL02hFemEwukIW-20" value="" style="endArrow=none;dashed=1;html=1;dashPattern=1 3;strokeWidth=4;strokeColor=default;rounded=0;" parent="1" edge="1">
          <mxGeometry width="50" height="50" relative="1" as="geometry">
            <mxPoint x="80" y="-1430" as="sourcePoint" />
            <mxPoint x="-840" y="-1430" as="targetPoint" />
          </mxGeometry>
        </mxCell>
        <mxCell id="BV0hq-VL02hFemEwukIW-21" value="" style="endArrow=classic;html=1;rounded=0;entryX=0;entryY=0.5;entryDx=0;entryDy=0;" parent="1" target="BV0hq-VL02hFemEwukIW-11" edge="1">
          <mxGeometry width="50" height="50" relative="1" as="geometry">
            <mxPoint x="-240" y="-874" as="sourcePoint" />
            <mxPoint x="-110" y="-1020" as="targetPoint" />
          </mxGeometry>
        </mxCell>
        <mxCell id="BV0hq-VL02hFemEwukIW-75" value="" style="endArrow=none;dashed=1;html=1;dashPattern=1 3;strokeWidth=4;rounded=0;" parent="1" edge="1">
          <mxGeometry width="50" height="50" relative="1" as="geometry">
            <mxPoint x="-830" y="-520" as="sourcePoint" />
            <mxPoint x="80" y="-520" as="targetPoint" />
          </mxGeometry>
        </mxCell>
        <mxCell id="BV0hq-VL02hFemEwukIW-76" value="" style="endArrow=classic;html=1;rounded=0;exitX=0.444;exitY=-0.015;exitDx=0;exitDy=0;exitPerimeter=0;entryX=0.5;entryY=1;entryDx=0;entryDy=0;" parent="1" source="BV0hq-VL02hFemEwukIW-1" target="BV0hq-VL02hFemEwukIW-14" edge="1">
          <mxGeometry width="50" height="50" relative="1" as="geometry">
            <mxPoint x="-305" y="-770" as="sourcePoint" />
            <mxPoint x="-240" y="-860" as="targetPoint" />
          </mxGeometry>
        </mxCell>
        <mxCell id="BV0hq-VL02hFemEwukIW-81" value="" style="endArrow=none;html=1;rounded=0;" parent="1" edge="1">
          <mxGeometry width="50" height="50" relative="1" as="geometry">
            <mxPoint x="-1080" y="-250" as="sourcePoint" />
            <mxPoint x="-1080" y="-1680" as="targetPoint" />
          </mxGeometry>
        </mxCell>
        <mxCell id="BV0hq-VL02hFemEwukIW-82" value="" style="endArrow=none;html=1;rounded=0;" parent="1" edge="1">
          <mxGeometry width="50" height="50" relative="1" as="geometry">
            <mxPoint x="320" y="-250" as="sourcePoint" />
            <mxPoint x="320" y="-1680" as="targetPoint" />
          </mxGeometry>
        </mxCell>
        <mxCell id="BV0hq-VL02hFemEwukIW-83" value="&lt;b&gt;DB&lt;/b&gt;" style="shape=datastore;whiteSpace=wrap;html=1;" parent="1" vertex="1">
          <mxGeometry x="-750" y="-1030" width="60" height="60" as="geometry" />
        </mxCell>
        <mxCell id="BV0hq-VL02hFemEwukIW-85" value="Register Kit" style="rounded=0;whiteSpace=wrap;html=1;" parent="1" vertex="1">
          <mxGeometry x="-800" y="-902.5" width="160" height="60" as="geometry" />
        </mxCell>
        <mxCell id="BV0hq-VL02hFemEwukIW-86" value="" style="endArrow=classic;html=1;rounded=0;exitX=0;exitY=0.5;exitDx=0;exitDy=0;entryX=1;entryY=0.5;entryDx=0;entryDy=0;" parent="1" source="BV0hq-VL02hFemEwukIW-12" target="BV0hq-VL02hFemEwukIW-85" edge="1">
          <mxGeometry width="50" height="50" relative="1" as="geometry">
            <mxPoint x="-438" y="-895.5" as="sourcePoint" />
            <mxPoint x="-510" y="-895.5" as="targetPoint" />
          </mxGeometry>
        </mxCell>
        <mxCell id="BV0hq-VL02hFemEwukIW-87" value="" style="endArrow=classic;html=1;rounded=0;exitX=0.15;exitY=0.95;exitDx=0;exitDy=0;exitPerimeter=0;entryX=0.25;entryY=0;entryDx=0;entryDy=0;" parent="1" source="BV0hq-VL02hFemEwukIW-83" target="BV0hq-VL02hFemEwukIW-85" edge="1">
          <mxGeometry width="50" height="50" relative="1" as="geometry">
            <mxPoint x="-660" y="-1000" as="sourcePoint" />
            <mxPoint x="-660" y="-1080" as="targetPoint" />
          </mxGeometry>
        </mxCell>
        <mxCell id="BV0hq-VL02hFemEwukIW-88" value="" style="endArrow=classic;html=1;rounded=0;entryX=0.85;entryY=0.95;entryDx=0;entryDy=0;entryPerimeter=0;exitX=0.75;exitY=0;exitDx=0;exitDy=0;" parent="1" source="BV0hq-VL02hFemEwukIW-85" target="BV0hq-VL02hFemEwukIW-83" edge="1">
          <mxGeometry width="50" height="50" relative="1" as="geometry">
            <mxPoint x="-650" y="-990" as="sourcePoint" />
            <mxPoint x="-650" y="-1070" as="targetPoint" />
          </mxGeometry>
        </mxCell>
        <mxCell id="BV0hq-VL02hFemEwukIW-94" value="Patient Register KIT&lt;br&gt;&lt;div style=&quot;color: rgb(248, 248, 242); background-color: rgb(39, 40, 34); font-family: monospace, &amp;quot;Droid Sans Mono&amp;quot;, &amp;quot;monospace&amp;quot;, monospace; font-weight: normal; font-size: 13px; line-height: 18px;&quot;&gt;&lt;div&gt;/register-kit&lt;/div&gt;&lt;/div&gt;" style="rounded=0;whiteSpace=wrap;html=1;" parent="1" vertex="1">
          <mxGeometry x="-380.5" y="-470" width="161" height="90" as="geometry" />
        </mxCell>
        <mxCell id="BV0hq-VL02hFemEwukIW-95" value="" style="endArrow=classic;html=1;rounded=0;exitX=0.5;exitY=0;exitDx=0;exitDy=0;" parent="1" edge="1">
          <mxGeometry width="50" height="50" relative="1" as="geometry">
            <mxPoint x="-300.5" y="-480" as="sourcePoint" />
            <mxPoint x="-300.5" y="-600" as="targetPoint" />
          </mxGeometry>
        </mxCell>
        <mxCell id="BV0hq-VL02hFemEwukIW-96" value="&lt;div&gt;Abort&lt;/div&gt;" style="ellipse;whiteSpace=wrap;html=1;aspect=fixed;" parent="1" vertex="1">
          <mxGeometry x="-61.5" y="-899" width="50" height="50" as="geometry" />
        </mxCell>
        <mxCell id="BV0hq-VL02hFemEwukIW-97" value="" style="endArrow=classic;html=1;rounded=0;exitX=1;exitY=0.5;exitDx=0;exitDy=0;entryX=0;entryY=0.5;entryDx=0;entryDy=0;" parent="1" source="BV0hq-VL02hFemEwukIW-11" target="BV0hq-VL02hFemEwukIW-96" edge="1">
          <mxGeometry width="50" height="50" relative="1" as="geometry">
            <mxPoint x="-136" y="-774.5" as="sourcePoint" />
            <mxPoint x="-136" y="-840.5" as="targetPoint" />
          </mxGeometry>
        </mxCell>
        <mxCell id="BV0hq-VL02hFemEwukIW-98" value="Sync-Service" style="verticalLabelPosition=bottom;aspect=fixed;html=1;verticalAlign=top;strokeColor=none;shape=mxgraph.citrix.file_server;rounded=0;shadow=0;comic=0;fontFamily=Verdana;" parent="1" vertex="1">
          <mxGeometry x="-165" y="-1201" width="71" height="97" as="geometry" />
        </mxCell>
        <mxCell id="BV0hq-VL02hFemEwukIW-100" value="Update" style="ellipse;whiteSpace=wrap;html=1;aspect=fixed;" parent="1" vertex="1">
          <mxGeometry x="-368" y="-1209" width="120" height="120" as="geometry" />
        </mxCell>
        <mxCell id="BV0hq-VL02hFemEwukIW-109" value="" style="endArrow=classic;html=1;rounded=0;" parent="1" source="BV0hq-VL02hFemEwukIW-100" edge="1">
          <mxGeometry width="50" height="50" relative="1" as="geometry">
            <mxPoint x="-295" y="-1159" as="sourcePoint" />
            <mxPoint x="-265" y="-1189" as="targetPoint" />
          </mxGeometry>
        </mxCell>
        <mxCell id="BV0hq-VL02hFemEwukIW-112" value="" style="endArrow=classic;html=1;rounded=0;" parent="1" edge="1">
          <mxGeometry width="50" height="50" relative="1" as="geometry">
            <mxPoint x="-356.5" y="-1149" as="sourcePoint" />
            <mxPoint x="-306.5" y="-1099" as="targetPoint" />
          </mxGeometry>
        </mxCell>
        <mxCell id="BV0hq-VL02hFemEwukIW-113" value="" style="endArrow=classic;html=1;rounded=0;" parent="1" edge="1">
          <mxGeometry width="50" height="50" relative="1" as="geometry">
            <mxPoint x="-256.5" y="-1149" as="sourcePoint" />
            <mxPoint x="-306.5" y="-1199" as="targetPoint" />
          </mxGeometry>
        </mxCell>
        <mxCell id="BV0hq-VL02hFemEwukIW-114" value="" style="endArrow=classic;html=1;rounded=0;exitX=0.5;exitY=1;exitDx=0;exitDy=0;entryX=0.5;entryY=1;entryDx=0;entryDy=0;" parent="1" source="BV0hq-VL02hFemEwukIW-100" target="BV0hq-VL02hFemEwukIW-115" edge="1">
          <mxGeometry width="50" height="50" relative="1" as="geometry">
            <mxPoint x="-35" y="-1029" as="sourcePoint" />
            <mxPoint x="125" y="-1039" as="targetPoint" />
            <Array as="points">
              <mxPoint x="-308" y="-1039" />
              <mxPoint x="55" y="-1039" />
            </Array>
          </mxGeometry>
        </mxCell>
        <mxCell id="BV0hq-VL02hFemEwukIW-115" value="Check fo Updates" style="ellipse;whiteSpace=wrap;html=1;aspect=fixed;" parent="1" vertex="1">
          <mxGeometry x="-5" y="-1209" width="120" height="120" as="geometry" />
        </mxCell>
        <mxCell id="BV0hq-VL02hFemEwukIW-116" value="" style="endArrow=classic;html=1;rounded=0;entryX=0.5;entryY=0;entryDx=0;entryDy=0;exitX=0.5;exitY=0;exitDx=0;exitDy=0;" parent="1" source="BV0hq-VL02hFemEwukIW-115" target="BV0hq-VL02hFemEwukIW-100" edge="1">
          <mxGeometry width="50" height="50" relative="1" as="geometry">
            <mxPoint x="-30" y="-1350" as="sourcePoint" />
            <mxPoint x="52" y="-1310" as="targetPoint" />
            <Array as="points">
              <mxPoint x="55" y="-1260" />
              <mxPoint x="-310" y="-1260" />
            </Array>
          </mxGeometry>
        </mxCell>
        <mxCell id="BV0hq-VL02hFemEwukIW-117" value="" style="endArrow=classic;html=1;rounded=0;strokeWidth=4;fillColor=#d5e8d4;strokeColor=#00FF00;" parent="1" edge="1">
          <mxGeometry width="50" height="50" relative="1" as="geometry">
            <mxPoint x="20" y="-1260" as="sourcePoint" />
            <mxPoint x="20" y="-1430" as="targetPoint" />
            <Array as="points">
              <mxPoint x="20" y="-1312" />
            </Array>
          </mxGeometry>
        </mxCell>
        <mxCell id="BV0hq-VL02hFemEwukIW-118" value="" style="endArrow=classic;html=1;rounded=0;strokeWidth=4;fillColor=#d5e8d4;strokeColor=#00FF00;" parent="1" edge="1">
          <mxGeometry width="50" height="50" relative="1" as="geometry">
            <mxPoint x="-264.5" y="-1430" as="sourcePoint" />
            <mxPoint x="-264.5" y="-1260" as="targetPoint" />
            <Array as="points" />
          </mxGeometry>
        </mxCell>
        <mxCell id="BV0hq-VL02hFemEwukIW-119" value="&lt;font color=&quot;#ff0800&quot; style=&quot;font-size: 19px;&quot;&gt;Create Orchard Order&lt;/font&gt;" style="rounded=0;whiteSpace=wrap;html=1;" parent="1" vertex="1">
          <mxGeometry x="-248" y="-1350" width="251" height="40" as="geometry" />
        </mxCell>
        <mxCell id="BV0hq-VL02hFemEwukIW-130" value="&lt;font style=&quot;font-size: 26px;&quot;&gt;&lt;b&gt;1&lt;/b&gt;&lt;/font&gt;" style="ellipse;whiteSpace=wrap;html=1;aspect=fixed;" parent="1" vertex="1">
          <mxGeometry x="-460" y="-450" width="50" height="50" as="geometry" />
        </mxCell>
        <mxCell id="BV0hq-VL02hFemEwukIW-131" value="&lt;font style=&quot;font-size: 26px;&quot;&gt;&lt;b&gt;2&lt;/b&gt;&lt;/font&gt;" style="ellipse;whiteSpace=wrap;html=1;aspect=fixed;" parent="1" vertex="1">
          <mxGeometry x="-660" y="-1030" width="50" height="50" as="geometry" />
        </mxCell>
        <mxCell id="BV0hq-VL02hFemEwukIW-132" value="&lt;font style=&quot;font-size: 26px;&quot;&gt;&lt;b&gt;3&lt;/b&gt;&lt;/font&gt;" style="ellipse;whiteSpace=wrap;html=1;aspect=fixed;" parent="1" vertex="1">
          <mxGeometry x="-385.5" y="-1325" width="50" height="50" as="geometry" />
        </mxCell>
        <mxCell id="7fzuLtNcVK9V7eeY9LuI-2" value="&lt;div&gt;&lt;font style=&quot;font-size: 26px;&quot;&gt;Flow: &lt;br&gt;&lt;/font&gt;&lt;/div&gt;&lt;div&gt;&lt;font style=&quot;font-size: 26px;&quot;&gt;Patient Register KIT&amp;nbsp;&lt;/font&gt;&lt;/div&gt;&lt;div&gt;&lt;font style=&quot;font-size: 26px;&quot;&gt;&amp;amp;&amp;amp;&lt;br&gt;&lt;/font&gt;&lt;/div&gt;&lt;font style=&quot;font-size: 26px;&quot;&gt;Create Orchard Order&lt;br&gt;&lt;/font&gt;" style="text;html=1;strokeColor=none;fillColor=none;align=center;verticalAlign=middle;whiteSpace=wrap;rounded=0;" vertex="1" parent="1">
          <mxGeometry x="-1060" y="-1671" width="510" height="100" as="geometry" />
        </mxCell>
      </root>
    </mxGraphModel>
  </diagram>
</mxfile>
